<?xml version="1.0" encoding="utf-8"?>
<!-- Generator: Adobe Illustrator 16.0.2, SVG Export Plug-In . SVG Version: 6.00 Build 0)  -->
<!DOCTYPE svg PUBLIC "-//W3C//DTD SVG 1.1//EN" "http://www.w3.org/Graphics/SVG/1.1/DTD/svg11.dtd">
<svg version="1.1" id="Layer_1" xmlns="http://www.w3.org/2000/svg" xmlns:xlink="http://www.w3.org/1999/xlink" x="0px" y="0px"
	 width="217.251px" height="223.112px" viewBox="0 0 217.251 223.112" enable-background="new 0 0 217.251 223.112"
	 xml:space="preserve">
<g>
	<polygon fill="#0F2271" points="23.622,140.054 23.622,144.628 34.179,144.628 34.179,149.59 23.622,149.59 23.622,159.546 
		17.806,159.546 17.806,135.092 36.74,135.092 36.74,140.054 	"/>
	<path fill="#0F2271" d="M177.617,138.014h-5.954v-4.151h5.954V138.014z M171.663,140.864h5.954v18.685h-5.954V140.864z"/>
	<g>
		<defs>
			<rect id="SVGID_1_" width="217.251" height="223.112"/>
		</defs>
		<clipPath id="SVGID_2_">
			<use xlink:href="#SVGID_1_"  overflow="visible"/>
		</clipPath>
		<path clip-path="url(#SVGID_2_)" fill="#0F2271" d="M189.144,140.266c1.406,0,2.729,0.258,3.963,0.773
			c1.233,0.516,2.313,1.221,3.237,2.11c0.921,0.894,1.649,1.936,2.181,3.132c0.528,1.196,0.796,2.477,0.796,3.836
			c0,1.361-0.268,2.633-0.796,3.817c-0.531,1.186-1.26,2.224-2.181,3.113c-0.924,0.893-2.004,1.597-3.237,2.112
			c-1.234,0.516-2.557,0.774-3.963,0.774c-1.407,0-2.729-0.259-3.964-0.774c-1.233-0.516-2.313-1.22-3.235-2.112
			c-0.923-0.89-1.651-1.928-2.183-3.113c-0.53-1.185-0.796-2.456-0.796-3.817c0-1.359,0.266-2.64,0.796-3.836
			c0.531-1.196,1.26-2.238,2.183-3.132c0.922-0.89,2.002-1.595,3.235-2.11C186.414,140.524,187.736,140.266,189.144,140.266
			 M189.144,155.571c0.899,0,1.631-0.141,2.197-0.422c0.566-0.28,1.011-0.668,1.332-1.162c0.324-0.491,0.543-1.071,0.659-1.739
			c0.114-0.67,0.173-1.379,0.173-2.13c0-0.75-0.059-1.459-0.173-2.13c-0.116-0.667-0.335-1.249-0.659-1.74
			c-0.321-0.493-0.766-0.886-1.332-1.179c-0.566-0.294-1.298-0.44-2.197-0.44c-0.901,0-1.634,0.146-2.197,0.44
			c-0.567,0.293-1.011,0.686-1.335,1.179c-0.322,0.491-0.541,1.073-0.657,1.74c-0.114,0.671-0.171,1.38-0.171,2.13
			c0,0.751,0.057,1.46,0.171,2.13c0.116,0.668,0.335,1.248,0.657,1.739c0.324,0.494,0.768,0.882,1.335,1.162
			C187.51,155.43,188.242,155.571,189.144,155.571"/>
		<path clip-path="url(#SVGID_2_)" fill="#0F2271" d="M49.789,159.372c-1.106,0.281-2.007,0.452-2.7,0.511
			c-0.691,0.058-1.268,0.087-1.731,0.087c-1.521,0-2.9-0.239-4.136-0.721c-1.234-0.48-2.296-1.149-3.184-2.007
			c-0.889-0.855-1.575-1.881-2.059-3.077c-0.485-1.196-0.727-2.51-0.727-3.942c0-1.359,0.247-2.638,0.744-3.834
			c0.496-1.195,1.188-2.24,2.077-3.133c0.887-0.889,1.954-1.593,3.201-2.109c1.246-0.517,2.62-0.775,4.12-0.775
			c1.752,0,3.253,0.283,4.5,0.845c1.247,0.563,2.266,1.319,3.062,2.271c0.796,0.949,1.384,2.04,1.767,3.271
			c0.379,1.231,0.57,2.504,0.57,3.818v0.068c0,0.26-0.006,0.482-0.018,0.671c-0.011,0.188-0.028,0.397-0.05,0.634H40.789
			c0.301,1.193,0.894,2.123,1.783,2.777c0.889,0.657,1.933,1.021,3.133,1.093c0.577,0.047,1.149,0.028,1.713-0.055
			c0.565-0.082,1.356-0.263,2.371-0.544V159.372z M45.463,144.699c-1.27,0-2.301,0.357-3.099,1.074
			c-0.796,0.716-1.32,1.683-1.575,2.901h9.207c-0.183-1.195-0.656-2.159-1.418-2.884C47.816,145.063,46.779,144.699,45.463,144.699"
			/>
		<path clip-path="url(#SVGID_2_)" fill="#0F2271" d="M55.294,150.083c0-1.549,0.26-2.886,0.778-4.011
			c0.52-1.128,1.188-2.07,2.008-2.833c0.819-0.763,1.747-1.36,2.787-1.796c1.038-0.433,2.064-0.75,3.081-0.948
			c1.014-0.2,1.972-0.295,2.873-0.281c0.898,0.013,1.637,0.088,2.214,0.228v3.978c-0.623-0.095-1.384-0.082-2.285,0.034
			c-0.899,0.118-1.776,0.394-2.629,0.827c-0.855,0.435-1.582,1.037-2.182,1.812c-0.6,0.775-0.899,1.772-0.899,2.991
			s0.299,2.223,0.899,3.009c0.6,0.786,1.321,1.391,2.164,1.811c0.841,0.424,1.719,0.687,2.631,0.792
			c0.91,0.105,1.678,0.089,2.301-0.052v4.081c-0.577,0.141-1.316,0.217-2.214,0.229c-0.901,0.012-1.859-0.081-2.873-0.281
			c-1.017-0.199-2.043-0.516-3.081-0.949c-1.04-0.435-1.968-1.033-2.787-1.795c-0.82-0.763-1.488-1.701-2.008-2.815
			C55.554,152.999,55.294,151.655,55.294,150.083"/>
		<path clip-path="url(#SVGID_2_)" fill="#0F2271" d="M79.453,140.266c1.407,0,2.729,0.258,3.963,0.773s2.314,1.221,3.238,2.11
			c0.921,0.894,1.649,1.936,2.18,3.132c0.529,1.196,0.796,2.477,0.796,3.836c0,1.361-0.267,2.633-0.796,3.817
			c-0.531,1.186-1.259,2.224-2.18,3.113c-0.924,0.893-2.004,1.597-3.238,2.112s-2.556,0.774-3.963,0.774
			c-1.407,0-2.729-0.259-3.963-0.774c-1.234-0.516-2.314-1.22-3.236-2.112c-0.923-0.89-1.651-1.928-2.182-3.113
			c-0.531-1.185-0.796-2.456-0.796-3.817c0-1.359,0.265-2.64,0.796-3.836c0.531-1.196,1.259-2.238,2.182-3.132
			c0.922-0.89,2.002-1.595,3.236-2.11C76.724,140.524,78.046,140.266,79.453,140.266 M79.453,155.571c0.9,0,1.633-0.141,2.198-0.422
			c0.566-0.28,1.01-0.668,1.334-1.162c0.322-0.491,0.541-1.071,0.657-1.739c0.114-0.67,0.173-1.379,0.173-2.13
			c0-0.75-0.059-1.459-0.173-2.13c-0.116-0.667-0.335-1.249-0.657-1.74c-0.324-0.493-0.768-0.886-1.334-1.179
			c-0.565-0.294-1.298-0.44-2.198-0.44c-0.901,0-1.633,0.146-2.197,0.44c-0.567,0.293-1.011,0.686-1.335,1.179
			c-0.322,0.491-0.541,1.073-0.657,1.74c-0.114,0.671-0.171,1.38-0.171,2.13c0,0.751,0.057,1.46,0.171,2.13
			c0.116,0.668,0.335,1.248,0.657,1.739c0.324,0.494,0.768,0.882,1.335,1.162C77.82,155.43,78.552,155.571,79.453,155.571"/>
		<path clip-path="url(#SVGID_2_)" fill="#0F2271" d="M113.859,140.265c1.614,0,3.027,0.24,4.24,0.722
			c1.212,0.481,2.215,1.132,3.011,1.953s1.391,1.789,1.783,2.903c0.393,1.113,0.589,2.316,0.589,3.605v10.098h-5.988v-10.423
			c0-0.492-0.064-0.984-0.192-1.476c-0.125-0.492-0.328-0.936-0.604-1.333c-0.278-0.398-0.647-0.725-1.108-0.983
			c-0.463-0.256-1.038-0.385-1.73-0.385c-0.693,0-1.264,0.129-1.714,0.385c-0.45,0.259-0.813,0.585-1.091,0.983
			c-0.276,0.397-0.473,0.841-0.587,1.333c-0.118,0.491-0.175,0.983-0.175,1.476v10.423h-0.069h-5.987v-10.423
			c0-0.492-0.063-0.984-0.189-1.476c-0.128-0.492-0.33-0.936-0.607-1.333c-0.276-0.398-0.645-0.725-1.108-0.983
			c-0.462-0.256-1.037-0.385-1.73-0.385c-0.692,0-1.264,0.129-1.713,0.385c-0.451,0.259-0.814,0.585-1.09,0.983
			c-0.278,0.397-0.474,0.841-0.59,1.333c-0.115,0.491-0.172,0.983-0.172,1.476v10.423h-6.058v-10.098
			c0-1.289,0.196-2.492,0.588-3.605c0.393-1.114,0.987-2.082,1.783-2.903s1.795-1.472,2.994-1.953
			c1.2-0.481,2.618-0.722,4.258-0.722c1.454,0,2.722,0.182,3.808,0.546c1.083,0.363,2.029,0.874,2.838,1.53
			c0.785-0.656,1.718-1.167,2.803-1.53C111.135,140.447,112.404,140.265,113.859,140.265"/>
		<path clip-path="url(#SVGID_2_)" fill="#0F2271" d="M139.438,159.372c-1.107,0.281-2.008,0.451-2.7,0.51
			c-0.691,0.059-1.269,0.089-1.729,0.089c-1.523,0-2.903-0.242-4.138-0.721c-1.234-0.482-2.295-1.151-3.185-2.007
			c-0.889-0.856-1.573-1.883-2.059-3.079s-0.727-2.509-0.727-3.94c0-1.359,0.247-2.64,0.744-3.836
			c0.495-1.195,1.188-2.239,2.076-3.131c0.889-0.891,1.956-1.595,3.201-2.112c1.247-0.515,2.62-0.772,4.12-0.772
			c1.752,0,3.254,0.281,4.499,0.843c1.247,0.564,2.267,1.321,3.064,2.271c0.796,0.949,1.385,2.042,1.766,3.271
			c0.38,1.233,0.569,2.506,0.569,3.818v0.069c0,0.26-0.007,0.482-0.016,0.669c-0.012,0.188-0.03,0.4-0.053,0.635h-14.435
			c0.3,1.195,0.895,2.123,1.782,2.779c0.889,0.657,1.933,1.021,3.134,1.091c0.576,0.047,1.148,0.028,1.713-0.053
			c0.565-0.082,1.355-0.264,2.371-0.546V159.372z M135.111,144.7c-1.268,0-2.301,0.357-3.099,1.071
			c-0.794,0.718-1.32,1.684-1.574,2.904h9.206c-0.183-1.196-0.656-2.159-1.418-2.886C137.465,145.062,136.427,144.7,135.111,144.7
			 M136.496,138.612l4.431-4.222l-4.534-2.007l-3.911,6.229H136.496z"/>
		<path clip-path="url(#SVGID_2_)" fill="#0F2271" d="M157.3,144.453c-0.693,0-1.338,0.059-1.938,0.176
			c-0.6,0.118-1.107,0.271-1.522,0.458c-0.324,0.141-0.618,0.299-0.884,0.474c-0.265,0.178-0.484,0.395-0.658,0.651
			c-0.172,0.259-0.306,0.581-0.397,0.969c-0.093,0.386-0.139,0.872-0.139,1.459v10.909h-6.057v-11.26
			c0-1.151,0.23-2.218,0.691-3.202c0.461-0.985,1.119-1.835,1.973-2.551c0.854-0.716,1.899-1.278,3.134-1.69
			c1.232-0.407,2.636-0.615,4.205-0.615h0.45c0.14,0,0.306,0.007,0.501,0.018c0.196,0.011,0.411,0.029,0.642,0.054V144.453z"/>
		<path clip-path="url(#SVGID_2_)" fill="#0F2271" d="M156.399,150.083c0-1.549,0.26-2.886,0.778-4.011
			c0.52-1.128,1.188-2.07,2.008-2.833c0.819-0.763,1.747-1.36,2.787-1.796c1.038-0.433,2.063-0.75,3.081-0.948
			c1.014-0.2,1.972-0.295,2.873-0.281c0.897,0.013,1.637,0.088,2.216,0.228v3.978c-0.625-0.095-1.386-0.082-2.287,0.034
			c-0.899,0.118-1.776,0.394-2.629,0.827c-0.855,0.435-1.582,1.037-2.182,1.812c-0.601,0.775-0.899,1.772-0.899,2.991
			s0.299,2.223,0.899,3.009c0.6,0.786,1.32,1.391,2.164,1.811c0.841,0.424,1.719,0.687,2.631,0.792
			c0.909,0.105,1.678,0.089,2.303-0.052v4.081c-0.579,0.141-1.318,0.217-2.216,0.229c-0.901,0.012-1.859-0.081-2.873-0.281
			c-1.018-0.199-2.043-0.516-3.081-0.949c-1.04-0.435-1.968-1.033-2.787-1.795c-0.82-0.763-1.488-1.701-2.008-2.815
			C156.659,152.999,156.399,151.655,156.399,150.083"/>
		<path clip-path="url(#SVGID_2_)" fill="#FFB205" d="M53.297,65.348c12.024-15.257,45.18-45.816,90.387-45.816
			c31.732,0,55.761,18.083,55.761,18.083c-17.868-8.693-88.523-22.825-144.137,28.617L53.297,65.348z"/>
		<path clip-path="url(#SVGID_2_)" fill="#0F2371" d="M86.221,81.335c1.2-5.908,5.302-9.761,11.608-9.761
			c6.401,0,10.403,3.937,11.307,9.761H86.221z M195.745,70.744c1.22,0,2.415,0.097,3.574,0.278v-9.826
			c-2.153-0.295-4.454-0.439-6.944-0.439c-17.274,0-30.315,10.341-30.315,24.169c0,0.946,0.062,1.867,0.177,2.765
			c-2.534-4.259-8.156-6.424-16.152-8.075c-10.188-2.069-11.596-2.971-11.392-5.213c0.194-2.136,3.616-4.104,8.721-4.104
			c3.267,0,7.638,0.775,11.528,2.59V62.602c-3.753-1.15-7.85-1.916-12.271-1.916c-12.855,0-21.48,6.159-22.164,14.617
			c-0.005,0.053-0.005,0.104-0.011,0.157c-3.104-8.334-10.355-14.582-22.846-14.582c-15.027,0-25.293,10.988-25.293,24.31
			c0,0.338,0.007,0.672,0.018,1.005c-2.826-6.133-10.195-8.958-20.145-11.128c-11.75-2.523-13.423-3.678-13.423-6.357
			c0-2.571,3.003-4.765,7.682-4.666c3.64,0.076,5.81,0.948,6.809,1.307v-0.001c2.903-3.601,6.022-7.054,9.329-10.334
			c-4.92-1.793-10.293-2.716-16.086-2.716c-13.976,0-23.738,6.991-23.738,17.507c0,8.064,4.219,11.733,11.6,14.244
			c0.396,0.124,1.553,0.483,2.222,0.699c2.543,0.738,5.393,1.391,8.524,2.06c11.528,2.475,12.491,4.556,12.491,6.842
			c0,2.694-3.208,4.304-8.576,4.304c-6.138,0-11.819-1.807-17.765-5.654c-3.05,4.124-6.195,8.651-7.871,11.428
			c7.472,4.069,16.199,6.578,25.355,6.578c14.922,0,24.342-6.425,24.838-16.947c3.154,9.583,11.987,15.805,23.918,15.805
			c2.297,0,5.596-0.076,11.031-1.425V97.52c-5.05,1.462-7.217,1.614-10.181,1.461c-5.933-0.306-10.776-3.651-12.168-9.511h35.893
			c0.093-1.2,0.187-1.969,0.187-3.255v-0.174c0-1.261-0.069-2.515-0.208-3.75c2.728,3.763,8.711,5.295,16.917,6.956
			c9.994,2.03,10.549,3.557,10.549,5.903c0,2.067-2.663,4.443-8.567,4.249c-6.066-0.203-13.167-2.008-18.652-5.108v11.8
			c5.722,2.561,12.977,4.155,18.612,4.155c13.521,0,22.8-7.921,22.8-16.477c0-0.191-0.008-0.375-0.014-0.561
			c2.394,5.607,7.095,9.861,12.439,12.461c5.324,2.59,11.022,3.403,15.708,3.436c2.754,0.02,5.139-0.18,7.436-0.546v-9.98
			c-1.159,0.186-2.354,0.284-3.574,0.284c-10.004,0-18.122-6.297-18.122-14.059C177.623,77.036,185.741,70.744,195.745,70.744"/>
		<path clip-path="url(#SVGID_2_)" fill="#FFB205" d="M37.081,84.901c-3.634,4.223-10.795,14.087-13.654,18.827
			c-2.817-1.643-4.302-2.705-5.621-3.722c4.348-4.757,11.003-11.775,16.454-16.001C34.26,84.005,36.749,84.775,37.081,84.901"/>
		<path clip-path="url(#SVGID_2_)" fill="#0F2371" d="M115.441,193.802c-0.11,0.003-0.221,0.007-0.335,0.007
			c-4.607,0-7.947-2.948-7.947-7.012v-0.09c0-3.887,3.348-6.93,7.619-6.93c0.229,0,0.45,0.007,0.663,0.019v-4.668
			c-0.197-0.008-0.402-0.008-0.607-0.008c-7.417,0-13.222,3.94-14.446,9.473c-0.526-4.385-3.569-6.936-9.73-6.936
			c-0.277,0-1.232,0.004-1.493,0.011v4.712c1.216,0.013,2.882,0.217,3.625,0.608c1.09,0.574,1.656,1.542,1.683,2.851
			c-1.488-0.174-3.174-0.293-4.636-0.33c-5.787-0.148-8.734,1.704-9.444,4.699v-3.059c0-5.27-3.221-9.381-10.035-9.381
			c-6.241,0-9.468,3.442-9.972,8.063c-0.795-4.555-4.072-8.286-10.39-8.286c-6.411,0-10.888,4.579-10.888,10.136v0.071
			c0,0.137,0.003,0.272,0.009,0.407c-1.286-2.098-4.141-3.241-8.29-4.14c-4.938-1.055-5.633-1.561-5.633-3.121v-0.07
			c0-1.151,1.268-2.067,3.673-2.067c1.228,0,2.831,0.334,3.956,0.75v-4.979c-1.046-0.181-2.653-0.388-3.872-0.388
			c-5.839,0-9.998,2.852-9.998,7.165v0.064c0,4.716,3.709,6.038,9.467,7.26c4.774,1.019,5.224,1.697,5.224,3.022v0.067
			c0,1.392-1.551,2.237-4.123,2.237c-3.265,0-5.428-1.119-7.998-2.883l-3.717,3.699c3.429,2.544,7.266,3.801,11.593,3.801
			c5.985,0,10.237-2.495,10.479-6.958c1.626,3.795,5.674,6.196,10.733,6.196c0.19,0,0.806-0.025,0.995-0.029v-4.438
			c-0.157,0.006-0.749,0.034-0.915,0.034c-2.795,0-4.766-1.305-5.385-3.813h15.009v7.888h6.313v-10.689
			c0.114-1.951,0.88-4.255,3.73-4.255c2.843,0,3.671,2.304,3.782,4.255v10.689h6.253v-4.271c0.743,2.938,3.786,4.524,7.383,4.524
			c3.044,0,5.14-0.984,6.656-2.474v2.245h6.039v-8.116c1.394,5.266,7.156,9.104,14.255,9.104c0.25,0,0.478-0.006,0.715-0.012
			V193.802z M94.494,190.53L94.494,190.53c-0.544,2.847-3.482,3.272-4.149,3.308c-4.751,0.251-4.92-2.999-3.323-3.989
			c2.148-1.33,7.491-0.583,7.491-0.583C94.513,189.458,94.563,189.944,94.494,190.53 M45.228,186.123
			c0.493-2.507,2.18-4.145,4.769-4.145c2.625,0,4.271,1.672,4.642,4.145H45.228z"/>
	</g>
</g>
</svg>
