<?xml version="1.0" encoding="utf-8"?>
<!-- Generator: Adobe Illustrator 16.0.3, SVG Export Plug-In . SVG Version: 6.00 Build 0)  -->
<!DOCTYPE svg PUBLIC "-//W3C//DTD SVG 1.1//EN" "http://www.w3.org/Graphics/SVG/1.1/DTD/svg11.dtd">
<svg version="1.1" id="Capa_1" xmlns="http://www.w3.org/2000/svg" xmlns:xlink="http://www.w3.org/1999/xlink" x="0px" y="0px"
	 width="394px" height="104px" viewBox="0 0 394 104" enable-background="new 0 0 394 104" xml:space="preserve">
<g>
	<defs>
		<rect id="SVGID_1_" x="-1136" y="-246.276" width="841.89" height="595.276"/>
	</defs>
	<clipPath id="SVGID_2_">
		<use xlink:href="#SVGID_1_"  overflow="visible"/>
	</clipPath>
	<path clip-path="url(#SVGID_2_)" fill-rule="evenodd" clip-rule="evenodd" fill="#FFCC00" d="M-577.186,71.299
		c3.103-0.927,6.223-1.692,9.375-2.279c3.853-0.719,7.42-1.073,11.344-1.256c-4.439,3.826-8.473,7.073-12.748,9.94
		c-3.615,2.419-7.206,4.517-10.813,6.317l-1.805-0.021c-1.889-0.021-3.752,0.023-5.602,0.146c-1.856,0.123-3.745,0.331-5.687,0.64
		c-1.215,0.192-2.421,0.41-3.629,0.664c1.969-1.097,3.894-2.262,5.784-3.496c2.159-1.404,4.237-2.854,6.258-4.389
		c2.026-1.532,4.037-3.18,6.063-4.973L-577.186,71.299z"/>
	<path clip-path="url(#SVGID_2_)" fill-rule="evenodd" clip-rule="evenodd" fill="#FFCC00" d="M-579.624,58.084
		c3.533-2.179,7.181-4.201,10.965-6.096c4.517-2.267,9.006-4.219,13.867-6.104c-4.032,5.254-7.897,9.921-12.031,14.306
		c-3.493,3.713-7.037,7.122-10.671,10.256l-2.008,0.629c-2.218,0.69-4.384,1.429-6.521,2.238c-2.145,0.808-4.276,1.706-6.403,2.71
		c-1.544,0.727-3.07,1.496-4.58,2.293c1.864-1.767,3.672-3.596,5.424-5.473c1.93-2.071,3.783-4.152,5.56-6.294
		c1.776-2.147,3.499-4.373,5.173-6.734L-579.624,58.084z"/>
	<path clip-path="url(#SVGID_2_)" fill-rule="evenodd" clip-rule="evenodd" fill="#FFCC00" d="M-566.523,89.921
		c-5.454,2.366-10.907,3.967-16.404,4.921l-1.352-0.536c-1.563-0.622-3.169-1.145-4.805-1.567c-1.644-0.431-3.331-0.774-5.04-1.037
		c-1.029-0.154-2.072-0.281-3.138-0.38c1.463-0.364,2.916-0.765,4.361-1.203c1.967-0.594,3.876-1.254,5.753-1.977
		c1.896-0.737,3.784-1.548,5.689-2.447l1.555-0.732c5.757,0.263,11.299,1.225,16.743,3.358
		C-564.281,88.893-565.432,89.423-566.523,89.921"/>
	<path clip-path="url(#SVGID_2_)" fill-rule="evenodd" clip-rule="evenodd" fill="#96CE17" d="M-604.291,83.548
		c4.011-2.522,8.091-4.752,12.246-6.718c4.219-1.997,8.401-3.531,12.807-4.907c-3.991,3.542-7.96,6.516-12.211,9.284
		c-4.172,2.728-8.535,5.093-13.12,7.153c3.924-1.193,7.774-2.095,11.587-2.699c3.808-0.597,7.426-0.807,11.143-0.775
		c-3.786,1.798-7.45,3.204-11.314,4.378c-3.83,1.168-7.764,2.052-11.809,2.688c3.745-0.091,7.299,0.113,10.703,0.635
		c3.381,0.517,6.605,1.334,9.654,2.545c-11.08,2.025-22.884,0.404-33.128-1.965c2.982-8.491,6.805-16.476,11.631-23.97
		c5.005-7.771,11.203-15.029,18.301-22.098c-2.2,5.582-4.995,10.955-8.02,16.293c-2.959,5.226-6.265,10.337-9.959,15.317
		c3.56-3.678,7.34-7.122,11.342-10.357c4.074-3.303,8.314-6.179,12.863-9.057c-3.313,4.676-6.823,8.831-10.663,12.941
		C-595.991,76.258-599.995,80.025-604.291,83.548"/>
	<path clip-path="url(#SVGID_2_)" fill-rule="evenodd" clip-rule="evenodd" fill="#FFCC00" d="M-586.255,45.615
		c7.221-6.89,15.468-13.432,24.791-19.788c-2.879,6.244-6.069,12.105-9.438,17.728c-2.872,4.78-5.908,9.354-9.148,13.727
		l-2.003,1.265c-2.265,1.428-4.473,2.877-6.645,4.391c-2.155,1.502-4.25,3.061-6.301,4.721c-1.691,1.365-3.334,2.77-4.924,4.193
		l0.144-0.224c1.672-2.572,3.244-5.174,4.731-7.796c1.523-2.685,2.987-5.388,4.342-8.095c1.362-2.733,2.625-5.5,3.738-8.307
		L-586.255,45.615z"/>
	<path clip-path="url(#SVGID_2_)" fill-rule="evenodd" clip-rule="evenodd" fill="#FAFD82" d="M-555.074,67.742
		c3.092-0.032,6.194,0.129,9.322,0.479c3.579,0.401,7.167,1.1,10.785,2.05c-9.789,7.74-18.676,13.534-27.085,17.525l-0.783-0.309
		c-2.769-1.084-5.573-1.874-8.413-2.421c-2.326-0.453-4.696-0.742-7.097-0.903c1.379-0.715,2.77-1.484,4.165-2.299h0.004
		c1.804-1.049,3.619-2.193,5.455-3.422c2.18-1.456,4.275-3,6.37-4.647c2.085-1.639,4.219-3.422,6.469-5.36L-555.074,67.742z"/>
	<path clip-path="url(#SVGID_2_)" fill-rule="evenodd" clip-rule="evenodd" fill="#FAFD82" d="M-553.215,45.292
		c3.815-1.421,7.732-2.716,11.769-3.899c4.599-1.337,9.357-2.545,14.246-3.577c-5.19,6.209-10.21,11.811-15.117,16.833
		c-4.404,4.514-8.757,8.562-13.046,12.169l-1.14,0.053c-1.994,0.087-3.886,0.232-5.761,0.433c-1.881,0.206-3.76,0.477-5.707,0.838
		c-1.594,0.299-3.18,0.639-4.751,1.021c-0.938,0.229-1.865,0.475-2.777,0.724c1.348-1.197,2.688-2.437,4.011-3.706
		c1.78-1.71,3.553-3.504,5.314-5.377c2.085-2.212,4.096-4.486,6.087-6.869c2-2.387,3.991-4.882,6.005-7.505L-553.215,45.292z"/>
	<path clip-path="url(#SVGID_2_)" fill-rule="evenodd" clip-rule="evenodd" fill="#FAFD82" d="M-560.038,24.862
		c9.304-6.29,19.693-12.454,31.304-18.578c-4.264,7.68-8.581,14.815-12.955,21.466c-3.93,5.981-7.924,11.565-12.02,16.76
		l-1.404,0.544c-2.472,0.958-4.831,1.923-7.102,2.92c-2.264,0.997-4.531,2.06-6.844,3.218c-1.924,0.966-3.798,1.951-5.611,2.958
		c-1.152,0.64-2.297,1.304-3.438,1.977c1.201-1.663,2.376-3.356,3.518-5.065c1.52-2.284,3.005-4.639,4.45-7.047
		c1.695-2.823,3.341-5.711,4.925-8.674c1.586-2.962,3.113-6.005,4.559-9.146L-560.038,24.862z"/>
	<path clip-path="url(#SVGID_2_)" fill-rule="evenodd" clip-rule="evenodd" fill="#96CE17" d="M-734.326,63.36L-734.326,63.36
		c0,4.31-0.853,8.403-2.534,12.27c-1.677,3.89-4.11,7.372-7.304,10.446c-3.261,3.078-6.89,5.426-10.898,7.006
		c-4.005,1.583-8.28,2.369-12.776,2.369c-4.595,0-8.887-0.786-12.916-2.369c-4.008-1.58-7.592-3.928-10.751-7.006
		c-3.18-2.994-5.588-6.458-7.251-10.343c-1.661-3.91-2.489-8.021-2.489-12.373c0-4.395,0.828-8.526,2.471-12.393
		c1.639-3.885,4.05-7.364,7.269-10.445c3.117-3.04,6.683-5.342,10.691-6.886c4.029-1.538,8.34-2.306,12.976-2.306
		c4.618,0,8.929,0.768,12.916,2.306c4.012,1.544,7.578,3.846,10.758,6.886c3.24,3.117,5.686,6.623,7.346,10.508
		C-735.158,54.898-734.326,59.004-734.326,63.36 M-755.322,63.36L-755.322,63.36c0-4.476-1.137-7.995-3.387-10.571
		c-2.243-2.566-5.3-3.848-9.129-3.848c-3.886,0-6.947,1.282-9.171,3.848c-2.247,2.576-3.363,6.096-3.363,10.571
		c0,4.475,1.116,7.974,3.32,10.53c2.229,2.551,5.286,3.825,9.214,3.825c3.867,0,6.929-1.274,9.153-3.825
		C-756.435,71.334-755.322,67.835-755.322,63.36 M-801.834,52.933L-801.834,52.933c-2.068-1.825-4.03-3.134-5.932-3.966
		c-1.902-0.835-3.893-1.26-5.996-1.26c-4.19,0-7.531,1.38-10.002,4.153c-2.468,2.772-3.706,6.517-3.706,11.259
		c0,4.595,1.28,8.241,3.846,10.975c2.573,2.731,6.037,4.087,10.393,4.087c2.141,0,4.149-0.423,6.03-1.274
		c1.884-0.85,3.664-2.166,5.367-3.945v18.342c-2.531,1.415-5.062,2.473-7.593,3.14c-2.53,0.666-5.142,1.01-7.834,1.01
		c-9.217,0-16.668-2.956-22.396-8.869c-5.71-5.911-8.564-13.686-8.564-23.341c0-9.378,2.913-17.03,8.747-22.982
		c5.829-5.954,13.327-8.929,22.456-8.929c3.036,0,5.788,0.305,8.237,0.891c2.454,0.583,4.778,1.537,6.947,2.857V52.933z
		 M-903.2,93.146V6.304h53.21v19.034h-30.125v15.061h28.408v18.63h-28.408v14.654h30.125v19.462H-903.2z"/>
	<path clip-path="url(#SVGID_2_)" fill-rule="evenodd" clip-rule="evenodd" fill="#259031" d="M-680.755,48.154L-680.755,48.154
		l-0.074,0.078c-5.555,5.672-8.332,12.797-8.332,21.368c0,7.742,2.419,13.991,7.241,18.739c0.382,0.365,0.765,0.727,1.165,1.066
		V76.378c-0.685-2.166-1.029-4.542-1.029-7.132c0-2.745,0.345-5.297,1.029-7.647V48.154z M-732.816,93.197l11.171-85.114h40.89
		v6.507h-34.438l-3.672,27.921h33.677l-0.813,6.392h-33.74l-5.809,44.294H-732.816z M-631.873,93.197L-631.873,93.197l6.742-51.577
		h6.809l-1.351,8.732c2.442-3.531,4.98-6.191,7.62-8.017c2.643-1.829,5.32-2.741,8.021-2.741c1.091,0,2.14,0.106,3.172,0.299
		c1.032,0.179,1.987,0.456,2.879,0.793l-1.633,7.048c-1.544-0.538-2.734-0.913-3.57-1.133c-0.832-0.223-1.525-0.317-2.063-0.317
		c-4.584,0-8.213,1.702-10.913,5.121c-2.681,3.411-4.485,8.592-5.376,15.576l-3.353,26.216H-631.873z M-680.755,89.406
		L-680.755,89.406V76.378c0.866,2.755,2.295,5.166,4.271,7.233c3.514,3.672,8.116,5.518,13.773,5.518
		c6.17,0,11.295-2.199,15.38-6.63c4.089-4.426,6.132-9.943,6.132-16.569c0-5.813-1.783-10.575-5.356-14.306
		c-3.552-3.71-8.117-5.574-13.652-5.574c-6.251,0-11.394,2.183-15.461,6.56c-2.405,2.594-4.101,5.587-5.086,8.989V48.154
		c5.563-5.626,12.526-8.437,20.9-8.437c7.701,0,13.991,2.401,18.855,7.181c4.86,4.785,7.305,10.933,7.305,18.455
		c0,8.715-2.742,15.917-8.238,21.59c-5.476,5.679-12.442,8.514-20.897,8.514C-670.11,95.457-676.087,93.439-680.755,89.406
		 M-680.755,8.083v6.507h0.207l0.817-6.507H-680.755z"/>
	<path clip-path="url(#SVGID_2_)" fill-rule="evenodd" clip-rule="evenodd" d="M-577.186,206.22
		c3.103-0.927,6.223-1.691,9.375-2.278c3.853-0.72,7.42-1.073,11.344-1.257c-4.439,3.826-8.473,7.073-12.748,9.94
		c-3.615,2.419-7.206,4.517-10.813,6.318l-1.805-0.021c-1.889-0.021-3.752,0.024-5.602,0.147c-1.856,0.123-3.745,0.331-5.687,0.639
		c-1.215,0.193-2.421,0.411-3.629,0.664c1.969-1.096,3.894-2.261,5.784-3.496c2.159-1.404,4.237-2.854,6.258-4.388
		c2.026-1.533,4.037-3.181,6.063-4.974L-577.186,206.22z"/>
	<path clip-path="url(#SVGID_2_)" fill-rule="evenodd" clip-rule="evenodd" d="M-579.624,193.005
		c3.533-2.179,7.181-4.2,10.965-6.096c4.517-2.267,9.006-4.22,13.867-6.104c-4.032,5.254-7.897,9.922-12.031,14.306
		c-3.493,3.713-7.037,7.122-10.671,10.256l-2.008,0.629c-2.218,0.691-4.384,1.43-6.521,2.238c-2.145,0.808-4.276,1.706-6.403,2.71
		c-1.544,0.727-3.07,1.496-4.58,2.293c1.864-1.766,3.672-3.595,5.424-5.472c1.93-2.072,3.783-4.153,5.56-6.294
		c1.776-2.148,3.499-4.373,5.173-6.735L-579.624,193.005z"/>
	<path clip-path="url(#SVGID_2_)" fill-rule="evenodd" clip-rule="evenodd" d="M-566.523,224.842
		c-5.454,2.366-10.907,3.967-16.404,4.921l-1.352-0.536c-1.563-0.622-3.169-1.145-4.805-1.566c-1.644-0.432-3.331-0.775-5.04-1.038
		c-1.029-0.154-2.072-0.281-3.138-0.379c1.463-0.365,2.916-0.766,4.361-1.204c1.967-0.593,3.876-1.253,5.753-1.977
		c1.896-0.736,3.784-1.548,5.689-2.446l1.555-0.733c5.757,0.263,11.299,1.225,16.743,3.359
		C-564.281,223.813-565.432,224.344-566.523,224.842"/>
	<path clip-path="url(#SVGID_2_)" fill-rule="evenodd" clip-rule="evenodd" d="M-604.291,218.47
		c4.011-2.523,8.091-4.752,12.246-6.719c4.219-1.996,8.401-3.53,12.807-4.906c-3.991,3.542-7.96,6.515-12.211,9.284
		c-4.172,2.727-8.535,5.093-13.12,7.152c3.924-1.192,7.774-2.095,11.587-2.699c3.808-0.597,7.426-0.807,11.143-0.774
		c-3.786,1.797-7.45,3.204-11.314,4.377c-3.83,1.168-7.764,2.052-11.809,2.688c3.745-0.091,7.299,0.113,10.703,0.636
		c3.381,0.516,6.605,1.334,9.654,2.545c-11.08,2.024-22.884,0.403-33.128-1.965c2.982-8.491,6.805-16.477,11.631-23.971
		c5.005-7.77,11.203-15.028,18.301-22.098c-2.2,5.581-4.995,10.955-8.02,16.293c-2.959,5.226-6.265,10.337-9.959,15.318
		c3.56-3.679,7.34-7.122,11.342-10.358c4.074-3.302,8.314-6.178,12.863-9.056c-3.313,4.675-6.823,8.831-10.663,12.94
		C-595.991,211.18-599.995,214.946-604.291,218.47"/>
	<path clip-path="url(#SVGID_2_)" fill-rule="evenodd" clip-rule="evenodd" d="M-586.255,180.536
		c7.221-6.891,15.468-13.433,24.791-19.788c-2.879,6.244-6.069,12.104-9.438,17.728c-2.872,4.78-5.908,9.354-9.148,13.728
		l-2.003,1.264c-2.265,1.428-4.473,2.877-6.645,4.391c-2.155,1.502-4.25,3.061-6.301,4.722c-1.691,1.364-3.334,2.769-4.924,4.192
		l0.144-0.224c1.672-2.572,3.244-5.173,4.731-7.796c1.523-2.685,2.987-5.387,4.342-8.094c1.362-2.734,2.625-5.5,3.738-8.308
		L-586.255,180.536z"/>
	<path clip-path="url(#SVGID_2_)" fill-rule="evenodd" clip-rule="evenodd" d="M-555.074,202.663
		c3.092-0.032,6.194,0.129,9.322,0.48c3.579,0.4,7.167,1.099,10.785,2.05c-9.789,7.74-18.676,13.534-27.085,17.524l-0.783-0.309
		c-2.769-1.084-5.573-1.874-8.413-2.421c-2.326-0.453-4.696-0.742-7.097-0.903c1.379-0.715,2.77-1.483,4.165-2.299h0.004
		c1.804-1.049,3.619-2.193,5.455-3.422c2.18-1.456,4.275-3,6.37-4.647c2.085-1.639,4.219-3.422,6.469-5.359L-555.074,202.663z"/>
	<path clip-path="url(#SVGID_2_)" fill-rule="evenodd" clip-rule="evenodd" d="M-553.215,180.214
		c3.815-1.421,7.732-2.716,11.769-3.899c4.599-1.337,9.357-2.545,14.246-3.577c-5.19,6.209-10.21,11.812-15.117,16.833
		c-4.404,4.515-8.757,8.563-13.046,12.169l-1.14,0.054c-1.994,0.087-3.886,0.231-5.761,0.432c-1.881,0.206-3.76,0.477-5.707,0.838
		c-1.594,0.299-3.18,0.639-4.751,1.022c-0.938,0.228-1.865,0.474-2.777,0.723c1.348-1.197,2.688-2.436,4.011-3.706
		c1.78-1.71,3.553-3.504,5.314-5.377c2.085-2.212,4.096-4.486,6.087-6.869c2-2.387,3.991-4.882,6.005-7.505L-553.215,180.214z"/>
	<path clip-path="url(#SVGID_2_)" fill-rule="evenodd" clip-rule="evenodd" d="M-560.038,159.783
		c9.304-6.29,19.693-12.454,31.304-18.578c-4.264,7.68-8.581,14.815-12.955,21.466c-3.93,5.981-7.924,11.565-12.02,16.76
		l-1.404,0.544c-2.472,0.959-4.831,1.924-7.102,2.921c-2.264,0.997-4.531,2.06-6.844,3.218c-1.924,0.966-3.798,1.951-5.611,2.959
		c-1.152,0.639-2.297,1.303-3.438,1.976c1.201-1.663,2.376-3.355,3.518-5.064c1.52-2.284,3.005-4.64,4.45-7.047
		c1.695-2.823,3.341-5.712,4.925-8.675c1.586-2.962,3.113-6.005,4.559-9.146L-560.038,159.783z"/>
	<path clip-path="url(#SVGID_2_)" fill-rule="evenodd" clip-rule="evenodd" d="M-734.326,198.281L-734.326,198.281
		c0,4.311-0.853,8.403-2.534,12.271c-1.677,3.889-4.11,7.372-7.304,10.445c-3.261,3.078-6.89,5.427-10.898,7.006
		c-4.005,1.583-8.28,2.369-12.776,2.369c-4.595,0-8.887-0.786-12.916-2.369c-4.008-1.579-7.592-3.928-10.751-7.006
		c-3.18-2.994-5.588-6.458-7.251-10.343c-1.661-3.91-2.489-8.02-2.489-12.373c0-4.394,0.828-8.525,2.471-12.393
		c1.639-3.886,4.05-7.364,7.269-10.445c3.117-3.04,6.683-5.342,10.691-6.886c4.029-1.538,8.34-2.307,12.976-2.307
		c4.618,0,8.929,0.769,12.916,2.307c4.012,1.544,7.578,3.846,10.758,6.886c3.24,3.117,5.686,6.623,7.346,10.508
		C-735.158,189.819-734.326,193.926-734.326,198.281 M-755.322,198.281L-755.322,198.281c0-4.475-1.137-7.995-3.387-10.571
		c-2.243-2.565-5.3-3.848-9.129-3.848c-3.886,0-6.947,1.282-9.171,3.848c-2.247,2.576-3.363,6.097-3.363,10.571
		c0,4.476,1.116,7.975,3.32,10.53c2.229,2.551,5.286,3.826,9.214,3.826c3.867,0,6.929-1.275,9.153-3.826
		C-756.435,206.256-755.322,202.757-755.322,198.281 M-801.834,187.854L-801.834,187.854c-2.068-1.825-4.03-3.134-5.932-3.966
		c-1.902-0.835-3.893-1.261-5.996-1.261c-4.19,0-7.531,1.381-10.002,4.153c-2.468,2.773-3.706,6.518-3.706,11.259
		c0,4.596,1.28,8.241,3.846,10.976c2.573,2.73,6.037,4.086,10.393,4.086c2.141,0,4.149-0.422,6.03-1.274
		c1.884-0.85,3.664-2.166,5.367-3.944v18.342c-2.531,1.415-5.062,2.472-7.593,3.138c-2.53,0.667-5.142,1.011-7.834,1.011
		c-9.217,0-16.668-2.956-22.396-8.869c-5.71-5.91-8.564-13.686-8.564-23.341c0-9.378,2.913-17.029,8.747-22.981
		c5.829-5.954,13.327-8.93,22.456-8.93c3.036,0,5.788,0.306,8.237,0.892c2.454,0.583,4.778,1.537,6.947,2.856V187.854z
		 M-903.2,228.066v-86.841h53.21v19.034h-30.125v15.061h28.408v18.63h-28.408v14.654h30.125v19.462H-903.2z"/>
	<path clip-path="url(#SVGID_2_)" fill-rule="evenodd" clip-rule="evenodd" d="M-680.755,183.075L-680.755,183.075l-0.074,0.078
		c-5.555,5.672-8.332,12.797-8.332,21.368c0,7.742,2.419,13.991,7.241,18.74c0.382,0.365,0.765,0.726,1.165,1.065V211.3
		c-0.685-2.166-1.029-4.542-1.029-7.132c0-2.745,0.345-5.298,1.029-7.648V183.075z M-732.816,228.118l11.171-85.113h40.89v6.507
		h-34.438l-3.672,27.921h33.677l-0.813,6.392h-33.74l-5.809,44.294H-732.816z M-631.873,228.118L-631.873,228.118l6.742-51.577
		h6.809l-1.351,8.732c2.442-3.531,4.98-6.191,7.62-8.017c2.643-1.829,5.32-2.741,8.021-2.741c1.091,0,2.14,0.105,3.172,0.299
		c1.032,0.179,1.987,0.456,2.879,0.793l-1.633,7.048c-1.544-0.538-2.734-0.913-3.57-1.133c-0.832-0.223-1.525-0.317-2.063-0.317
		c-4.584,0-8.213,1.702-10.913,5.121c-2.681,3.412-4.485,8.593-5.376,15.576l-3.353,26.216H-631.873z M-680.755,224.327
		L-680.755,224.327V211.3c0.866,2.755,2.295,5.166,4.271,7.232c3.514,3.672,8.116,5.519,13.773,5.519c6.17,0,11.295-2.2,15.38-6.63
		c4.089-4.427,6.132-9.944,6.132-16.57c0-5.813-1.783-10.575-5.356-14.306c-3.552-3.71-8.117-5.574-13.652-5.574
		c-6.251,0-11.394,2.183-15.461,6.56c-2.405,2.595-4.101,5.587-5.086,8.989v-13.444c5.563-5.626,12.526-8.437,20.9-8.437
		c7.701,0,13.991,2.4,18.855,7.181c4.86,4.785,7.305,10.934,7.305,18.455c0,8.715-2.742,15.917-8.238,21.59
		c-5.476,5.68-12.442,8.515-20.897,8.515C-670.11,230.379-676.087,228.36-680.755,224.327 M-680.755,143.005v6.507h0.207
		l0.817-6.507H-680.755z"/>
	
		<rect x="-548.73" y="-138.683" clip-path="url(#SVGID_2_)" fill-rule="evenodd" clip-rule="evenodd" width="186.321" height="70.519"/>
</g>
<text transform="matrix(1 0 0 1 -498.6025 -107.2183)"><tspan x="0" y="0" fill="#FFFFFF" font-family="'MyriadPro-Regular'" font-size="12.3803">C:0 M:0</tspan><tspan x="37.585" y="0" fill="#FFFFFF" font-family="'MyriadPro-Regular'" font-size="12.3803"> </tspan><tspan x="39.652" y="0" fill="#FFFFFF" font-family="'MyriadPro-Regular'" font-size="12.3803">Y</tspan><tspan x="45.954" y="0" fill="#FFFFFF" font-family="'MyriadPro-Regular'" font-size="12.3803">:0 </tspan><tspan x="57.492" y="0" fill="#FFFFFF" font-family="'MyriadPro-Regular'" font-size="12.3803">K</tspan><tspan x="64.462" y="0" fill="#FFFFFF" font-family="'MyriadPro-Regular'" font-size="12.3803">:100</tspan></text>
<text transform="matrix(1 0 0 1 -497.0303 -92.3618)" fill="#FFFFFF" font-family="'MyriadPro-Regular'" font-size="12.3803">R: 29 B: 29 G: 27 </text>
<g>
	<defs>
		<rect id="SVGID_3_" x="-1136" y="-246.276" width="841.89" height="595.276"/>
	</defs>
	<clipPath id="SVGID_4_">
		<use xlink:href="#SVGID_3_"  overflow="visible"/>
	</clipPath>
	
		<rect x="-1067.701" y="-138.683" clip-path="url(#SVGID_4_)" fill-rule="evenodd" clip-rule="evenodd" fill="#96CE17" width="105.037" height="70.519"/>
	
		<rect x="-963.849" y="-138.683" clip-path="url(#SVGID_4_)" fill-rule="evenodd" clip-rule="evenodd" fill="#259031" width="105.037" height="70.519"/>
	
		<rect x="-858.812" y="-138.683" clip-path="url(#SVGID_4_)" fill-rule="evenodd" clip-rule="evenodd" fill="#FFCC00" width="105.037" height="70.519"/>
	
		<rect x="-753.775" y="-138.683" clip-path="url(#SVGID_4_)" fill-rule="evenodd" clip-rule="evenodd" fill="#FAFD82" width="105.037" height="70.519"/>
</g>
<text transform="matrix(1 0 0 1 -1059.0088 -107.0225)"><tspan x="0" y="0" fill="#FFFFFF" font-family="'MyriadPro-Regular'" font-size="11.7423">C:41 M:0</tspan><tspan x="41.672" y="0" fill="#FFFFFF" font-family="'MyriadPro-Regular'" font-size="11.7423"> </tspan><tspan x="43.633" y="0" fill="#FFFFFF" font-family="'MyriadPro-Regular'" font-size="11.7423">Y</tspan><tspan x="49.609" y="0" fill="#FFFFFF" font-family="'MyriadPro-Regular'" font-size="11.7423">:100 </tspan><tspan x="72.6" y="0" fill="#FFFFFF" font-family="'MyriadPro-Regular'" font-size="11.7423">K</tspan><tspan x="79.223" y="0" fill="#FFFFFF" font-family="'MyriadPro-Regular'" font-size="11.7423">:0</tspan></text>
<text transform="matrix(1 0 0 1 -1056.7896 -92.9316)" fill="#FFFFFF" font-family="'MyriadPro-Regular'" font-size="11.7423">R:173 B:201 G:14 </text>
<text transform="matrix(1 0 0 1 -952.1421 -107.0225)"><tspan x="0" y="0" fill="#FFFFFF" font-family="'MyriadPro-Regular'" font-size="11.7423">C:86 M:6</tspan><tspan x="41.672" y="0" fill="#FFFFFF" font-family="'MyriadPro-Regular'" font-size="11.7423"> </tspan><tspan x="43.633" y="0" fill="#FFFFFF" font-family="'MyriadPro-Regular'" font-size="11.7423">Y</tspan><tspan x="49.609" y="0" fill="#FFFFFF" font-family="'MyriadPro-Regular'" font-size="11.7423">:97 </tspan><tspan x="66.577" y="0" fill="#FFFFFF" font-family="'MyriadPro-Regular'" font-size="11.7423">K</tspan><tspan x="73.199" y="0" fill="#FFFFFF" font-family="'MyriadPro-Regular'" font-size="11.7423">:0</tspan></text>
<text transform="matrix(1 0 0 1 -946.917 -92.9316)" fill="#FFFFFF" font-family="'MyriadPro-Regular'" font-size="11.7423">R:0 B:155 G:64 </text>
<text transform="matrix(1 0 0 1 -850.125 -107.0225)"><tspan x="0" y="0" fill="#FFFFFF" font-family="'MyriadPro-Regular'" font-size="11.7423">C:0 M:20</tspan><tspan x="41.672" y="0" fill="#FFFFFF" font-family="'MyriadPro-Regular'" font-size="11.7423"> </tspan><tspan x="43.633" y="0" fill="#FFFFFF" font-family="'MyriadPro-Regular'" font-size="11.7423">Y</tspan><tspan x="49.609" y="0" fill="#FFFFFF" font-family="'MyriadPro-Regular'" font-size="11.7423">:100 </tspan><tspan x="72.6" y="0" fill="#FFFFFF" font-family="'MyriadPro-Regular'" font-size="11.7423">K</tspan><tspan x="79.223" y="0" fill="#FFFFFF" font-family="'MyriadPro-Regular'" font-size="11.7423">:0</tspan></text>
<text transform="matrix(1 0 0 1 -844.8999 -92.9316)" fill="#FFFFFF" font-family="'MyriadPro-Regular'" font-size="11.7423">R:255 B:204 G:0 </text>
<text transform="matrix(1 0 0 1 -739.0664 -107.0225)"><tspan x="0" y="0" font-family="'MyriadPro-Regular'" font-size="11.7423">C:2 M:0</tspan><tspan x="35.648" y="0" font-family="'MyriadPro-Regular'" font-size="11.7423"> </tspan><tspan x="37.609" y="0" font-family="'MyriadPro-Regular'" font-size="11.7423">Y</tspan><tspan x="43.586" y="0" font-family="'MyriadPro-Regular'" font-size="11.7423">:49 </tspan><tspan x="60.553" y="0" font-family="'MyriadPro-Regular'" font-size="11.7423">K</tspan><tspan x="67.176" y="0" font-family="'MyriadPro-Regular'" font-size="11.7423">:0</tspan></text>
<text transform="matrix(1 0 0 1 -745.877 -92.9316)" font-family="'MyriadPro-Regular'" font-size="11.7423">R:255 B:244 G:158 </text>
<path fill-rule="evenodd" clip-rule="evenodd" fill="#FFCC00" d="M336.93,71.494c3.103-0.926,6.223-1.691,9.375-2.279
	c3.853-0.719,7.42-1.072,11.344-1.256c-4.439,3.826-8.473,7.074-12.748,9.941c-3.615,2.418-7.206,4.516-10.813,6.316l-1.805-0.02
	c-1.889-0.021-3.752,0.023-5.602,0.146c-1.856,0.123-3.745,0.33-5.687,0.639c-1.215,0.193-2.421,0.41-3.629,0.664
	c1.969-1.096,3.894-2.262,5.784-3.496c2.159-1.404,4.237-2.854,6.258-4.389c2.026-1.531,4.037-3.18,6.063-4.973L336.93,71.494z"/>
<path fill-rule="evenodd" clip-rule="evenodd" fill="#FFCC00" d="M334.491,58.279c3.533-2.178,7.181-4.201,10.965-6.096
	c4.517-2.267,9.006-4.219,13.867-6.104c-4.032,5.254-7.897,9.922-12.031,14.307c-3.493,3.713-7.037,7.121-10.671,10.256
	l-2.008,0.629c-2.218,0.689-4.384,1.428-6.521,2.238c-2.145,0.807-4.276,1.705-6.403,2.709c-1.544,0.727-3.07,1.496-4.58,2.293
	c1.864-1.766,3.672-3.596,5.424-5.473c1.93-2.07,3.783-4.152,5.56-6.293c1.776-2.148,3.499-4.373,5.173-6.734L334.491,58.279z"/>
<path fill-rule="evenodd" clip-rule="evenodd" fill="#FFCC00" d="M347.592,90.117c-5.454,2.365-10.907,3.967-16.404,4.92
	l-1.352-0.535c-1.563-0.623-3.169-1.145-4.805-1.568c-1.644-0.43-3.331-0.773-5.04-1.037c-1.029-0.154-2.072-0.281-3.138-0.379
	c1.463-0.365,2.916-0.766,4.361-1.203c1.967-0.594,3.876-1.254,5.753-1.977c1.896-0.738,3.784-1.549,5.689-2.447l1.555-0.732
	c5.757,0.262,11.299,1.225,16.743,3.357C349.834,89.088,348.684,89.619,347.592,90.117"/>
<path fill-rule="evenodd" clip-rule="evenodd" fill="#96CE17" d="M309.824,83.744c4.011-2.523,8.091-4.752,12.246-6.719
	c4.219-1.996,8.401-3.531,12.807-4.906c-3.991,3.541-7.96,6.516-12.211,9.283c-4.172,2.729-8.535,5.094-13.12,7.154
	c3.924-1.193,7.774-2.096,11.587-2.699c3.808-0.598,7.426-0.807,11.143-0.775c-3.786,1.797-7.45,3.203-11.314,4.377
	c-3.83,1.168-7.764,2.053-11.809,2.688c3.745-0.09,7.299,0.113,10.703,0.635c3.381,0.518,6.605,1.334,9.654,2.545
	c-11.08,2.025-22.884,0.404-33.128-1.965c2.982-8.49,6.805-16.475,11.631-23.969c5.005-7.771,11.203-15.029,18.301-22.099
	c-2.2,5.581-4.995,10.954-8.02,16.294c-2.959,5.225-6.265,10.336-9.959,15.316c3.56-3.678,7.34-7.121,11.342-10.357
	c4.074-3.303,8.314-6.178,12.863-9.057c-3.313,4.676-6.823,8.832-10.663,12.941C318.124,76.453,314.12,80.221,309.824,83.744"/>
<path fill-rule="evenodd" clip-rule="evenodd" fill="#FFCC00" d="M327.86,45.811c7.221-6.891,15.468-13.432,24.791-19.788
	c-2.879,6.244-6.069,12.104-9.438,17.728c-2.872,4.78-5.908,9.354-9.148,13.727l-2.003,1.266c-2.265,1.428-4.473,2.877-6.645,4.391
	c-2.155,1.502-4.25,3.061-6.301,4.721c-1.691,1.365-3.334,2.77-4.924,4.193l0.144-0.225c1.672-2.572,3.244-5.174,4.731-7.795
	c1.523-2.686,2.987-5.389,4.342-8.096c1.362-2.732,2.625-5.499,3.738-8.307L327.86,45.811z"/>
<path fill-rule="evenodd" clip-rule="evenodd" fill="#FAFD82" d="M359.041,67.938c3.092-0.031,6.194,0.129,9.322,0.48
	c3.579,0.4,7.167,1.1,10.785,2.049c-9.789,7.74-18.676,13.535-27.085,17.525l-0.783-0.309c-2.769-1.084-5.573-1.873-8.413-2.42
	c-2.326-0.453-4.696-0.742-7.097-0.904c1.379-0.715,2.77-1.484,4.165-2.299h0.004c1.804-1.049,3.619-2.193,5.455-3.422
	c2.18-1.455,4.275-3,6.37-4.646c2.085-1.639,4.219-3.422,6.469-5.361L359.041,67.938z"/>
<path fill-rule="evenodd" clip-rule="evenodd" fill="#FAFD82" d="M360.9,45.488c3.815-1.421,7.732-2.717,11.769-3.898
	c4.599-1.338,9.357-2.545,14.246-3.578c-5.19,6.209-10.21,11.812-15.117,16.834c-4.404,4.514-8.757,8.561-13.046,12.168l-1.14,0.053
	c-1.994,0.088-3.886,0.232-5.761,0.434c-1.881,0.205-3.76,0.477-5.707,0.838c-1.594,0.299-3.18,0.639-4.751,1.021
	c-0.938,0.229-1.865,0.475-2.777,0.723c1.348-1.197,2.688-2.436,4.011-3.705c1.78-1.711,3.553-3.504,5.314-5.377
	c2.085-2.213,4.096-4.486,6.087-6.869c2-2.388,3.991-4.883,6.005-7.506L360.9,45.488z"/>
<path fill-rule="evenodd" clip-rule="evenodd" fill="#FAFD82" d="M354.077,25.058c9.304-6.29,19.693-12.454,31.304-18.578
	c-4.264,7.681-8.581,14.815-12.955,21.466c-3.93,5.981-7.924,11.565-12.02,16.76l-1.404,0.545c-2.472,0.957-4.831,1.922-7.102,2.92
	c-2.264,0.996-4.531,2.06-6.844,3.218c-1.924,0.966-3.798,1.95-5.611,2.958c-1.152,0.641-2.297,1.305-3.438,1.977
	c1.201-1.662,2.376-3.355,3.518-5.064c1.52-2.284,3.005-4.639,4.45-7.047c1.695-2.823,3.341-5.711,4.925-8.674
	c1.586-2.963,3.113-6.006,4.559-9.146L354.077,25.058z"/>
<path fill-rule="evenodd" clip-rule="evenodd" fill="#96CE17" d="M179.789,63.557L179.789,63.557c0,4.309-0.854,8.402-2.533,12.27
	c-1.678,3.889-4.111,7.371-7.305,10.445c-3.261,3.078-6.891,5.426-10.898,7.006c-4.004,1.584-8.279,2.369-12.775,2.369
	c-4.596,0-8.887-0.785-12.916-2.369c-4.008-1.58-7.592-3.928-10.751-7.006c-3.181-2.994-5.588-6.457-7.251-10.342
	c-1.661-3.91-2.489-8.021-2.489-12.373c0-4.395,0.828-8.527,2.472-12.394c1.639-3.886,4.049-7.364,7.269-10.444
	c3.116-3.041,6.683-5.343,10.69-6.887c4.029-1.538,8.34-2.307,12.977-2.307c4.617,0,8.929,0.769,12.916,2.307
	c4.012,1.544,7.578,3.846,10.758,6.887c3.24,3.116,5.686,6.622,7.346,10.508C178.957,55.094,179.789,59.199,179.789,63.557
	 M158.793,63.557L158.793,63.557c0-4.477-1.137-7.996-3.387-10.572c-2.243-2.565-5.3-3.848-9.129-3.848
	c-3.887,0-6.947,1.282-9.171,3.848c-2.247,2.576-3.363,6.096-3.363,10.572c0,4.475,1.116,7.973,3.32,10.529
	c2.229,2.551,5.286,3.826,9.214,3.826c3.867,0,6.929-1.275,9.152-3.826C157.68,71.529,158.793,68.031,158.793,63.557
	 M112.281,53.129L112.281,53.129c-2.068-1.826-4.03-3.135-5.932-3.967c-1.902-0.835-3.894-1.26-5.996-1.26
	c-4.19,0-7.531,1.38-10.002,4.152c-2.469,2.773-3.707,6.518-3.707,11.26c0,4.594,1.281,8.24,3.847,10.975
	c2.573,2.73,6.037,4.086,10.394,4.086c2.141,0,4.148-0.422,6.029-1.273c1.885-0.85,3.664-2.166,5.367-3.945v18.342
	c-2.531,1.414-5.063,2.473-7.593,3.139s-5.142,1.01-7.835,1.01c-9.217,0-16.668-2.955-22.396-8.869
	c-5.71-5.91-8.563-13.686-8.563-23.34c0-9.379,2.912-17.03,8.746-22.982c5.83-5.954,13.328-8.93,22.457-8.93
	c3.035,0,5.787,0.306,8.236,0.892c2.454,0.583,4.778,1.537,6.947,2.856V53.129z M10.915,93.342V6.5h53.21v19.034H34v15.062h28.408
	v18.629H34v14.654h30.125v19.463H10.915z"/>
<path fill-rule="evenodd" clip-rule="evenodd" fill="#259031" d="M233.36,48.35L233.36,48.35l-0.074,0.078
	c-5.555,5.672-8.332,12.797-8.332,21.369c0,7.742,2.419,13.99,7.241,18.738c0.382,0.365,0.765,0.727,1.165,1.066V76.574
	c-0.685-2.166-1.029-4.543-1.029-7.133c0-2.744,0.345-5.297,1.029-7.646V48.35z M181.299,93.393l11.172-85.113h40.89v6.507h-34.438
	l-3.672,27.921h33.677l-0.813,6.393h-33.74l-5.809,44.293H181.299z M282.242,93.393L282.242,93.393l6.742-51.576h6.809l-1.351,8.732
	c2.442-3.531,4.98-6.191,7.62-8.018c2.643-1.829,5.32-2.741,8.021-2.741c1.091,0,2.14,0.106,3.172,0.3
	c1.032,0.178,1.987,0.455,2.879,0.793l-1.633,7.047c-1.544-0.537-2.734-0.912-3.57-1.133c-0.832-0.223-1.525-0.316-2.063-0.316
	c-4.584,0-8.213,1.701-10.913,5.121c-2.681,3.41-4.485,8.592-5.376,15.576l-3.353,26.215H282.242z M233.36,89.602L233.36,89.602
	V76.574c0.866,2.754,2.295,5.166,4.271,7.232c3.514,3.672,8.116,5.518,13.773,5.518c6.17,0,11.295-2.199,15.38-6.629
	c4.089-4.426,6.132-9.943,6.132-16.57c0-5.813-1.783-10.574-5.356-14.306c-3.552-3.71-8.117-5.574-13.652-5.574
	c-6.251,0-11.394,2.183-15.461,6.56c-2.405,2.594-4.101,5.588-5.086,8.99V48.35c5.563-5.625,12.526-8.437,20.9-8.437
	c7.701,0,13.991,2.401,18.855,7.181c4.86,4.785,7.305,10.934,7.305,18.455c0,8.715-2.742,15.918-8.238,21.59
	c-5.476,5.68-12.442,8.514-20.897,8.514C244.005,95.652,238.028,93.635,233.36,89.602 M233.36,8.279v6.507h0.207l0.817-6.507H233.36
	z"/>
</svg>
