<?xml version="1.0" encoding="utf-8"?>
<!-- Generator: Adobe Illustrator 16.0.2, SVG Export Plug-In . SVG Version: 6.00 Build 0)  -->
<!DOCTYPE svg PUBLIC "-//W3C//DTD SVG 1.1//EN" "http://www.w3.org/Graphics/SVG/1.1/DTD/svg11.dtd">
<svg version="1.1" id="Layer_1" xmlns="http://www.w3.org/2000/svg" xmlns:xlink="http://www.w3.org/1999/xlink" x="0px" y="0px"
	 width="346.814px" height="111.901px" viewBox="0 0 346.814 111.901" enable-background="new 0 0 346.814 111.901"
	 xml:space="preserve">
<g>
	<defs>
		<rect id="SVGID_1_" width="346.814" height="111.901"/>
	</defs>
	<clipPath id="SVGID_2_">
		<use xlink:href="#SVGID_1_"  overflow="visible"/>
	</clipPath>
	<path clip-path="url(#SVGID_2_)" fill="#F29F04" d="M35.38,44.193c3.035-3.733,6.066-7.481,9.055-11.244
		c-1.719-0.523-3.335-1.025-4.799-1.487c-0.288-0.071-0.574-0.146-0.86-0.223c-0.856,1.012-1.716,2.023-2.579,3.03
		c-4.406,5.156-8.873,10.312-13.325,15.481c1.56,1.443,3.134,2.787,4.703,4.038C30.182,50.578,32.79,47.378,35.38,44.193"/>
	<path clip-path="url(#SVGID_2_)" fill="#F29F04" d="M37.959,60.941c1.911,1.13,3.732,2.114,5.42,2.967
		c1.465-1.8,2.928-3.599,4.386-5.391c5.397-6.638,10.786-13.323,15.938-20.055c-0.461-0.122-0.897-0.26-1.331-0.444
		c-1.313-0.342-2.694-0.75-4.046-1.099c-3.18,3.922-6.438,7.816-9.744,11.674C45.067,52.707,41.514,56.82,37.959,60.941"/>
	<path clip-path="url(#SVGID_2_)" fill="#F29F04" d="M16.801,22.707c0.566-0.696,1.132-1.393,1.697-2.091
		c-1.282-1.085-2.511-2.233-3.682-3.439c-0.171-0.176-0.338-0.356-0.506-0.535c-2.861,3.329-5.74,6.661-8.617,9.997
		c0.978,2.045,2.028,3.999,3.138,5.865C11.493,29.226,14.156,25.959,16.801,22.707"/>
	<path clip-path="url(#SVGID_2_)" fill="#F29F04" d="M41.573,51.355c4.203-5.17,8.402-10.369,12.487-15.596
		c-1.894-0.528-3.755-1.062-5.546-1.589c-2.018,2.433-4.061,4.854-6.124,7.261c-4.068,4.76-8.188,9.52-12.3,14.291
		c1.723,1.276,3.425,2.44,5.081,3.5C37.31,56.591,39.447,53.968,41.573,51.355"/>
	<path clip-path="url(#SVGID_2_)" fill="#F29F04" d="M14.869,84.707c-3.557,0.081-6.516-0.159-8.598-0.421
		c1.278,2.169,2.651,4.277,4.111,6.32C11.859,88.64,13.355,86.673,14.869,84.707"/>
	<path clip-path="url(#SVGID_2_)" fill="#F29F04" d="M11.925,13.922c-1.253-1.535-2.418-3.142-3.488-4.815
		c-2.201,2.562-4.413,5.125-6.626,7.69c0.134,0.42,0.269,0.837,0.405,1.252c0.133,0.417,0.284,0.814,0.436,1.231
		c0.492,1.404,1.021,2.769,1.579,4.101c2.131-2.621,4.259-5.233,6.376-7.836C11.047,15.004,11.486,14.463,11.925,13.922"/>
	<path clip-path="url(#SVGID_2_)" fill="#F29F04" d="M67.878,39.888c-4.229,5.344-8.621,10.638-13.103,15.868
		c-2.746,3.214-5.517,6.429-8.293,9.646c2.418,1.106,4.405,1.884,5.768,2.378c0.57-0.701,1.14-1.401,1.709-2.1
		c6.411-7.887,12.81-15.838,18.813-23.857C71.205,41.158,69.569,40.509,67.878,39.888"/>
	<path clip-path="url(#SVGID_2_)" fill="#F29F04" d="M34.852,30.03c-0.985-0.342-1.959-0.705-2.927-1.087
		c-0.843-0.366-1.676-0.75-2.501-1.158c-4.327,5.058-8.709,10.117-13.076,15.189c1.389,1.625,2.816,3.158,4.263,4.602
		c2.864-3.529,5.73-7.046,8.576-10.544C31.08,34.704,32.97,32.369,34.852,30.03"/>
	<path clip-path="url(#SVGID_2_)" fill="#F29F04" d="M26.128,26.004c-1.659-0.964-3.267-2.022-4.803-3.158
		c-3.562,4.151-7.156,8.303-10.74,12.464c0.116,0.177,0.231,0.354,0.348,0.529c1.092,1.633,2.23,3.19,3.4,4.679
		c2.892-3.564,5.787-7.116,8.661-10.649C24.04,28.583,25.083,27.294,26.128,26.004"/>
	<path clip-path="url(#SVGID_2_)" fill="#F29F04" d="M6.5,5.813C5.628,4.197,4.834,2.528,4.13,0.807
		C2.576,3.801,1.193,6.889,0,10.053c0.213,0.986,0.437,1.953,0.689,2.908c1.244-1.529,2.487-3.056,3.725-4.578
		C5.11,7.527,5.805,6.671,6.5,5.813"/>
	<path clip-path="url(#SVGID_2_)" fill="#F29F04" d="M28.021,82.966c-3.596,0.888-7,1.369-10.073,1.593
		c-2.124,2.594-4.219,5.195-6.277,7.804c1.481,1.966,3.045,3.866,4.687,5.695C20.13,93.027,24.041,87.992,28.021,82.966"/>
	<path clip-path="url(#SVGID_2_)" fill="#F29F04" d="M22.966,104.667c7.546-10.037,15.632-20.091,23.715-30.041
		c-4.747,3.242-9.546,5.492-14.141,7.028c-5.041,5.953-9.995,11.934-14.748,17.964C19.445,101.373,21.171,103.057,22.966,104.667"/>
	<path clip-path="url(#SVGID_2_)" fill="#F29F04" d="M135.591,62.491c-1.037-0.613-2.209-1.213-3.529-1.791
		c-6.108,9.878-13.2,19.68-20.828,29.318c3.003-0.745,5.181-1.761,7.674-3.231c0.641-0.381,1.271-0.788,1.892-1.212
		c2.574-3.597,5.05-7.207,7.388-10.831C130.859,70.633,133.322,66.547,135.591,62.491"/>
	<path clip-path="url(#SVGID_2_)" fill="#F29F04" d="M131.32,78.463c1.885-0.854,3.835-1.313,5.925-1.085
		c1.728-2.806,3.362-5.598,4.902-8.376c-0.54-1.128-1.341-2.286-2.491-3.435C137.058,69.881,134.268,74.182,131.32,78.463"/>
	<path clip-path="url(#SVGID_2_)" fill="#F29F04" d="M60.152,72.842c7.231-8.896,14.448-17.874,21.096-26.938
		c-1.374-0.756-2.877-1.526-4.486-2.291c-5.044,6.512-10.353,12.955-15.793,19.305c-12.207,14.284-24.886,28.572-36.415,43.141
		c1.813,1.548,3.691,3.021,5.629,4.414C39.718,97.867,50.066,85.242,60.152,72.842"/>
	<path clip-path="url(#SVGID_2_)" fill="#F29F04" d="M97.898,91.66c2.84-0.178,5.222-0.376,7.27-0.61
		c6.009-7.759,11.738-15.579,16.826-23.468c1.881-2.894,3.658-5.775,5.338-8.643c-0.53-0.169-1.077-0.334-1.641-0.496
		c1.058-0.663,2.101-1.361,3.126-2.086c10.507-18.534,16.889-36.442,19.897-53.193c-0.412,0.531-0.831,1.057-1.263,1.572
		c-3.318,12.508-8.564,25.604-15.789,38.851C122.805,59.867,110.887,76.016,97.898,91.66"/>
	<path clip-path="url(#SVGID_2_)" fill="#F29F04" d="M115.802,60.419c10.548-16.234,17.895-32.08,22.528-47.192
		c-0.58,0.418-1.166,0.828-1.763,1.221c-0.371,0.246-0.744,0.488-1.121,0.724c-2.756,6.995-6.076,14.101-9.976,21.252
		c-10.2,18.744-24.454,37.315-39.729,55.142c-0.199,0.232-0.399,0.466-0.598,0.699c2.75-0.106,5.233-0.212,7.483-0.319
		C100.928,81.553,108.947,71.046,115.802,60.419"/>
	<path clip-path="url(#SVGID_2_)" fill="#F29F04" d="M140.169,46.378c2.665-2.885,5.1-5.977,7.276-9.248
		c4.807-12.792,7.673-25.127,8.878-36.81c-0.032-0.06-0.064-0.119-0.096-0.178C153.699,14.749,148.374,30.418,140.169,46.378"/>
	<path clip-path="url(#SVGID_2_)" fill="#F29F04" d="M32.198,111.396c-0.083,0.104-0.166,0.209-0.249,0.313
		c0.024,0.016,0.047,0.033,0.071,0.049C32.076,111.64,32.136,111.519,32.198,111.396"/>
	<path clip-path="url(#SVGID_2_)" fill="#F29F04" d="M66.345,80.004c7.779-9.569,15.541-19.233,22.596-28.999
		c-0.347-0.266-0.696-0.529-1.048-0.785c-0.781-0.646-1.759-1.351-2.903-2.092c-5.642,7.414-11.652,14.744-17.828,21.952
		c-9.264,10.841-18.799,21.683-27.898,32.647c3.394-2.809,8.117-5.533,14.659-7.428C58.059,90.175,62.224,85.071,66.345,80.004"/>
	<path clip-path="url(#SVGID_2_)" fill="#F29F04" d="M109.609,53.258c7.528-11.585,13.421-22.971,17.864-34.035
		c-0.158,0.063-0.315,0.129-0.474,0.19c-0.644,0.284-1.364,0.512-2.027,0.777c-0.435,0.171-0.869,0.347-1.3,0.528
		c-1.375,2.839-2.837,5.688-4.395,8.545c-10.2,18.744-24.454,37.315-39.729,55.142c-2.369,2.772-4.757,5.546-7.15,8.32
		c2.813-0.097,5.428-0.188,7.86-0.276C90.713,79.563,101.064,66.503,109.609,53.258"/>
	<path clip-path="url(#SVGID_2_)" fill="#F29F04" d="M72.538,87.167c10.971-13.495,21.917-27.181,30.878-41.071
		c4.593-7.069,8.578-14.064,11.997-20.957c-0.128,0.088-0.261,0.173-0.388,0.262c-1.327,0.871-2.596,1.818-3.808,2.804
		c-1.201,0.976-2.353,2.007-3.457,3.085c-3.584,5.847-7.516,11.667-11.705,17.444c-0.857,2.116-1.58,4.301-2.156,6.545
		c-0.019-0.019-0.019-0.019-0.037-0.038c-0.509-0.487-1.027-0.967-1.553-1.438c-5.966,7.921-12.365,15.75-18.954,23.44
		c-4.801,5.617-9.674,11.235-14.522,16.87c2.731-0.538,5.726-0.941,9.006-1.172C69.409,91.011,70.977,89.086,72.538,87.167"/>
	<path clip-path="url(#SVGID_2_)" fill="#F29F04" d="M144.042,73.25c-1.284,1.771-2.499,3.56-3.641,5.368
		c0.603,0.262,1.214,0.597,1.836,1.019C142.236,79.636,144.459,76.958,144.042,73.25"/>
	<path clip-path="url(#SVGID_2_)" fill="#023E74" d="M229.407,36.313c0,22.303-10.239,40.622-32.112,40.622
		c-14.757,0-24.136-8.625-27.154-19.398l18.109-3.772c2.579,5.176,5.273,7.44,10.344,7.44c8.51,0,13.037-8.187,14.002-25.426
		c-3.447,8.396-10.983,13.467-19.503,13.467c-12.713,0-23.268-8.299-23.268-22.521C169.825,11.642,180.275,0,198.699,0
		C213.781,0,229.407,10.019,229.407,36.313 M199.559,35.778c6.467,0,10.449-3.887,10.449-10.133c0-6.142-3.982-10.02-10.449-10.02
		c-6.352,0-10.344,3.878-10.344,10.02C189.215,31.891,193.207,35.778,199.559,35.778"/>
	<path clip-path="url(#SVGID_2_)" fill="#023E74" d="M250.56,17.994c-2.588,7.44-7.651,10.449-16.161,10.449V12.826
		c13.468,0,16.161-3.667,16.161-12.072h18.854V76.18H250.56V17.994z"/>
	<rect x="276.547" y="59.695" clip-path="url(#SVGID_2_)" fill="#023E74" width="15.626" height="16.485"/>
	<polygon clip-path="url(#SVGID_2_)" fill="#023E74" points="328.284,15.301 296.928,15.301 294.778,0.754 346.814,0.754 
		346.814,15.301 315.246,76.181 296.718,76.181 	"/>
	<path clip-path="url(#SVGID_2_)" fill="#023E74" d="M172.127,100.18l2.579-0.648c0.623,2.859,2.922,4.79,6.099,4.79
		c2.614,0,4.703-1.281,4.703-3.765c0-2.271-1.589-2.955-3.834-3.736l-3.388-1.123c-3.272-1.088-5.352-2.36-5.352-5.563
		c0-3.369,2.799-5.764,7.186-5.764c4.448,0,7.001,2.465,7.94,5.326l-2.65,0.587c-0.648-1.868-2.334-3.667-5.448-3.667
		c-2.545,0-4.325,1.246-4.325,3.299c0,1.956,1.403,2.702,3.677,3.448l3.483,1.184c3.018,1.027,5.412,2.334,5.412,5.853
		c0,3.58-2.701,6.158-7.431,6.158C176.356,106.558,172.874,103.98,172.127,100.18"/>
	<polygon clip-path="url(#SVGID_2_)" fill="#023E74" points="205.222,96.293 194.201,96.293 194.201,106.375 191.43,106.375 
		191.43,84.59 194.201,84.59 194.201,94.048 205.222,94.048 205.222,84.59 207.985,84.59 207.985,106.375 205.222,106.375 	"/>
	<path clip-path="url(#SVGID_2_)" fill="#023E74" d="M229.945,106.375h-2.765l-2.113-5.791h-9.933l-2.148,5.791h-2.677l8.159-21.784
		h3.388L229.945,106.375z M224.251,98.347l-4.132-11.3l-4.177,11.3H224.251z"/>
	<polygon clip-path="url(#SVGID_2_)" fill="#023E74" points="232.271,84.59 235.042,84.59 235.042,104.137 244.72,104.137 
		244.72,106.375 232.271,106.375 	"/>
	<path clip-path="url(#SVGID_2_)" fill="#023E74" d="M244.579,95.487c0-6.756,3.983-11.116,10.143-11.116
		c6.133,0,10.116,4.36,10.116,11.116c0,6.746-3.983,11.107-10.116,11.107C248.563,106.594,244.579,102.233,244.579,95.487
		 M254.722,104.225c4.359,0,7.256-3.448,7.256-8.738c0-5.291-2.896-8.748-7.256-8.748c-4.353,0-7.282,3.457-7.282,8.748
		C247.439,100.777,250.369,104.225,254.722,104.225"/>
	<polygon clip-path="url(#SVGID_2_)" fill="#023E74" points="270.839,88.828 270.839,106.375 268.188,106.375 268.188,84.589 
		271.804,84.589 279.209,102.917 286.49,84.589 290.097,84.589 290.097,106.375 287.455,106.375 287.455,88.546 280.357,106.375 
		277.937,106.375 	"/>
	<polygon clip-path="url(#SVGID_2_)" fill="#023E74" points="301.835,84.59 317.119,84.59 317.119,88.793 307.283,88.793 
		307.283,93.706 315.53,93.706 315.53,97.908 307.283,97.908 307.283,106.375 301.835,106.375 	"/>
	<polygon clip-path="url(#SVGID_2_)" fill="#023E74" points="324.173,93.496 324.173,106.375 319.032,106.375 319.032,84.59 
		325.726,84.59 331.455,99.4 336.956,84.59 343.65,84.59 343.65,106.375 338.518,106.375 338.518,92.933 333.508,106.375 
		329.183,106.375 	"/>
	<rect x="301.858" y="109.128" clip-path="url(#SVGID_2_)" fill="#023E74" width="41.797" height="2.772"/>
</g>
</svg>
